<svg xmlns="http://www.w3.org/2000/svg" viewBox="0 0 750 500"><g id="freepik--background-simple--inject-44"><path d="M621.52,153.8c-65.19-77.74-146.2-97.28-146.2-97.28S380.57,29.88,287.56,72.29s-139.93,126.59-180.23,194-17.1,136,53.89,167.3S280.5,418.78,380.1,416.54s126.38,9,209-35.47S686.72,231.53,621.52,153.8Z" style="fill:#92E3A9"></path><path d="M621.52,153.8c-65.19-77.74-146.2-97.28-146.2-97.28S380.57,29.88,287.56,72.29s-139.93,126.59-180.23,194-17.1,136,53.89,167.3S280.5,418.78,380.1,416.54s126.38,9,209-35.47S686.72,231.53,621.52,153.8Z" style="fill:#fff;opacity:0.8"></path></g><g id="freepik--Plants--inject-44"><path d="M81.09,441s.64-22.86-.17-42.52.82-61.84.82-61.84" style="fill:none;stroke:#263238;stroke-miterlimit:10;stroke-width:1.50598px"></path><line x1="81.37" y1="361.4" x2="72.43" y2="354.37" style="fill:none;stroke:#263238;stroke-miterlimit:10;stroke-width:1.50598px"></line><line x1="81.27" y1="366.24" x2="84.45" y2="361.09" style="fill:none;stroke:#263238;stroke-miterlimit:10;stroke-width:1.50598px"></line><line x1="80.55" y1="386.58" x2="88.48" y2="380.02" style="fill:none;stroke:#263238;stroke-miterlimit:10;stroke-width:1.50598px"></line><line x1="81.75" y1="345.25" x2="77.56" y2="341.44" style="fill:none;stroke:#263238;stroke-miterlimit:10;stroke-width:1.50598px"></line><line x1="80.47" y1="390.15" x2="75.23" y2="384.52" style="fill:none;stroke:#263238;stroke-miterlimit:10;stroke-width:1.50598px"></line><line x1="80.93" y1="412.22" x2="70.02" y2="402.27" style="fill:none;stroke:#263238;stroke-miterlimit:10;stroke-width:1.50598px"></line><path d="M81.21,424.49a67.39,67.39,0,0,0,8.09-3.78" style="fill:none;stroke:#263238;stroke-miterlimit:10;stroke-width:1.50598px"></path><path d="M75.19,364.93c-4.38-3.39-19.08-2.79-21.91,4.25s6.11,18.49,14.78,17.69c3.39-.32,4.85-.56,6.17-2.45h0L62.15,372.61l13.08,10.51a10.6,10.6,0,0,0,.89-2.15,17,17,0,0,0,.41-1.67C77.37,375.09,79.28,368.1,75.19,364.93Z" style="fill:#92E3A9"></path><path d="M103.61,356.77a2,2,0,0,1,0,.24c-1.18,5.25-7.18,8.22-12.22,7.78a11.64,11.64,0,0,1-2.07-.38A14.39,14.39,0,0,0,88,377.12a8.2,8.2,0,0,0,.85,1.67C90.3,377.57,106.2,364,106.2,364L89.7,379.91c5,5.33,16.65,4.6,20.7-5.27S109.34,358.18,103.61,356.77Z" style="fill:#92E3A9"></path><path d="M95.53,338.43c-8.56-1.88-16.21,2-16.07,10.93a14.44,14.44,0,0,0,4.76,10.47L93,347.73l-7.42,13.11A12.05,12.05,0,0,0,87.74,362a11.52,11.52,0,0,0,3.39.81c5,.45,11-2.53,12.22-7.77C104.67,349.21,104.08,340.31,95.53,338.43Z" style="fill:#92E3A9"></path><path d="M85.55,307.38a68.11,68.11,0,0,0-6.35,2.94c-5.47,2.68-9.8,11.33-5.48,18.74,2.46,4.21,5.31,5.81,7.31,6.41l2.2-21.28-.89,21.56a5.93,5.93,0,0,0,1.25.05c3.56-.37,9.18-4.62,9.72-13.34S85.55,307.38,85.55,307.38Z" style="fill:#92E3A9"></path><path d="M60.55,326.72l16.5,13.2a4.54,4.54,0,0,0,.16-1.85c-.75-7.56-8.3-11.93-13.27-13.51s-8.43,1.23-5.23,8.47,11.59,10.68,15.34,9.63a4.37,4.37,0,0,0,2.29-1.4Z" style="fill:#92E3A9"></path><path d="M71.91,343.65c-3.57.12-9.34-2.43-12.7-7.34-3.46-.06-6.34,1.58-7.26,5.92-1.69,7.88,4,16.13,12.22,15.12,3.59-.44,5.66-1.67,6.85-2.92L56.33,341l15.72,12a4.88,4.88,0,0,0,.57-1.81A13.08,13.08,0,0,0,71.91,343.65Z" style="fill:#92E3A9"></path><path d="M71.82,387.44a12.75,12.75,0,0,1-4.21,1c-5.37.5-10.84-3.71-13.56-8.65-3.3.53-5.93,2.3-6.57,5.91-1.62,9.21,6.91,21.36,15.53,19.44a12.29,12.29,0,0,0,6-3L50.18,384,70.1,400.89a10.48,10.48,0,0,0,2.12-5A11.5,11.5,0,0,0,71.82,387.44Z" style="fill:#92E3A9"></path><path d="M109.7,406.35c-6.33-7.32-13.87-.76-13.87-.76s-4.62,1.52-6.36,8.07a10,10,0,0,0,.23,6l19-11.09L90.16,420.73c1.73,3.28,5.52,5.29,10.69,3.84C109.24,422.22,116,413.68,109.7,406.35Z" style="fill:#92E3A9"></path><rect x="67.56" y="434.06" width="26.36" height="39.03" style="fill:#263238"></rect><path d="M692.58,226.57s0-5.66-7.93-13.59-13-12.47-13-12.47-4,13,3.4,21a138.43,138.43,0,0,0,17.56,15.3Z" style="fill:#92E3A9"></path><path d="M681.07,262s0-5.66-7.93-13.59-13-12.47-13-12.47-4,13,3.4,21a139.36,139.36,0,0,0,17.56,15.3Z" style="fill:#92E3A9"></path><path d="M692.08,236.22s.6-5.63,9.32-12.68,14.28-11,14.28-11,2.56,13.38-5.6,20.49A138.86,138.86,0,0,1,691,246.36Z" style="fill:#92E3A9"></path><path d="M678.17,278s1.19-5.54,10.61-11.63,15.35-9.45,15.35-9.45,1.15,13.57-7.72,19.78A139.14,139.14,0,0,1,676,288Z" style="fill:#92E3A9"></path><path d="M680.79,323.56s0-5.67,7.93-13.6,13-12.46,13-12.46,4,13-3.4,21a139.36,139.36,0,0,1-17.56,15.3Z" style="fill:#92E3A9"></path><path d="M680.66,334.68s.8-5.61-5.92-14.59-11.13-14.18-11.13-14.18-5.78,12.33.39,21.23a139.4,139.4,0,0,0,15.21,17.63Z" style="fill:#92E3A9"></path><path d="M672.84,367.63s0-5.66,7.93-13.59,13-12.47,13-12.47,4,13-3.4,21a139.2,139.2,0,0,1-17.56,15.3Z" style="fill:#92E3A9"></path><path d="M678.13,397.51s-1.43-5.48,4.23-15.16S691.81,367,691.81,367s7.14,11.6,2,21.14a139.21,139.21,0,0,1-13.12,19.24Z" style="fill:#92E3A9"></path><path d="M693.3,225.12a162.84,162.84,0,0,1-2.18,17.59c-3.13,16.2-11,26.65-14.1,41.28s5.86,33.48,3.45,52.27-9.72,29.24-7.63,41.78,13.06,46.51,13.06,46.51" style="fill:none;stroke:#263238;stroke-linecap:round;stroke-linejoin:round;stroke-width:1.00861px"></path><line x1="692" y1="239.99" x2="700.55" y2="233.43" style="fill:none;stroke:#263238;stroke-linecap:round;stroke-linejoin:round;stroke-width:1.00861px"></line><line x1="692.4" y1="232.43" x2="688.82" y2="226.07" style="fill:none;stroke:#263238;stroke-linecap:round;stroke-linejoin:round;stroke-width:1.00861px"></line><path d="M677.49,283.32S684.65,278,692,272.58" style="fill:none;stroke:#263238;stroke-linecap:round;stroke-linejoin:round;stroke-width:1.00861px"></path><path d="M681.07,272.15s-6-11.69-12.72-19.44" style="fill:none;stroke:#263238;stroke-linecap:round;stroke-linejoin:round;stroke-width:1.00861px"></path><path d="M681.07,331.62a88.41,88.41,0,0,1,15.3-20.47" style="fill:none;stroke:#263238;stroke-linecap:round;stroke-linejoin:round;stroke-width:1.00861px"></path><path d="M679.68,339.57a100.31,100.31,0,0,0-7.75-14.71c-4.18-6.16-4.77-7-4.77-7" style="fill:none;stroke:#263238;stroke-linecap:round;stroke-linejoin:round;stroke-width:1.00861px"></path><path d="M672.84,378a94.9,94.9,0,0,1,6.44-13,83.79,83.79,0,0,1,8.35-10.93" style="fill:none;stroke:#263238;stroke-linecap:round;stroke-linejoin:round;stroke-width:1.00861px"></path><path d="M680.71,407.37s-.83-6.78,2.15-12.54,6.36-13.32,7.75-16.3" style="fill:none;stroke:#263238;stroke-linecap:round;stroke-linejoin:round;stroke-width:1.00861px"></path><path d="M640.64,302.25s-.61-3.55,3.5-9.38,6.82-9.23,6.82-9.23,3.9,7.74.14,13.51a89.34,89.34,0,0,1-9.35,11.5Z" style="fill:#92E3A9"></path><path d="M651.7,323.19s-.61-3.55,3.5-9.39,6.82-9.23,6.82-9.23,3.9,7.74.14,13.52a88.88,88.88,0,0,1-9.35,11.49Z" style="fill:#92E3A9"></path><path d="M642,308.25s-1-3.47-7.22-6.94S624.63,296,624.63,296s-.15,8.67,5.74,12.24a88.28,88.28,0,0,0,13.41,6.3Z" style="fill:#92E3A9"></path><path d="M655.26,332.94s-1.35-3.34-7.91-6.14-10.66-4.26-10.66-4.26.76,8.63,7,11.56a87.89,87.89,0,0,0,14,4.86Z" style="fill:#92E3A9"></path><path d="M658.56,361.79s-.61-3.55-6.44-7.66-9.53-6.4-9.53-6.4-1.07,8.6,4.41,12.77a88.41,88.41,0,0,0,12.67,7.69Z" style="fill:#92E3A9"></path><path d="M659.85,368.75s-1.11-3.43,2.13-9.79,5.44-10.1,5.44-10.1,5,7.1,2.06,13.35a88.82,88.82,0,0,1-7.62,12.71Z" style="fill:#92E3A9"></path><path d="M669.81,397.41s.41-3.59,6-8,9.14-6.94,9.14-6.94,1.56,8.53-3.67,13a88.3,88.3,0,0,1-12.21,8.39Z" style="fill:#92E3A9"></path><path d="M668.34,388.57s-.62-3.56-6.45-7.67-9.53-6.4-9.53-6.4-1.07,8.6,4.41,12.78A88.92,88.92,0,0,0,669.44,395Z" style="fill:#92E3A9"></path><path d="M668.26,407.88s.3-3.6-4.3-9.05-7.59-8.61-7.59-8.61-3.22,8,1,13.48a88.78,88.78,0,0,0,10.31,10.64Z" style="fill:#92E3A9"></path><path d="M640,301.42a101.54,101.54,0,0,0,3.28,10.8c3.72,9.81,9.77,15.52,13.32,24.35s0,21.63,3.51,33.15,9.28,17.28,9.33,25.38-3.15,30.58-3.15,30.58" style="fill:none;stroke:#263238;stroke-linecap:round;stroke-linejoin:round;stroke-width:1.00861px"></path><line x1="642.46" y1="310.6" x2="636.39" y2="307.42" style="fill:none;stroke:#263238;stroke-linecap:round;stroke-linejoin:round;stroke-width:1.00861px"></line><line x1="641.39" y1="305.91" x2="642.94" y2="301.53" style="fill:none;stroke:#263238;stroke-linecap:round;stroke-linejoin:round;stroke-width:1.00861px"></line><path d="M656.26,336.2S651.19,333.61,646,331" style="fill:none;stroke:#263238;stroke-linecap:round;stroke-linejoin:round;stroke-width:1.00861px"></path><path d="M652.81,329.58A73,73,0,0,1,658.67,316" style="fill:none;stroke:#263238;stroke-linecap:round;stroke-linejoin:round;stroke-width:1.00861px"></path><path d="M659.26,366.88a56.23,56.23,0,0,0-11.82-11.18" style="fill:none;stroke:#263238;stroke-linecap:round;stroke-linejoin:round;stroke-width:1.00861px"></path><path d="M661,371.71a63.07,63.07,0,0,1,3.26-10.06c2-4.32,2.24-4.88,2.24-4.88" style="fill:none;stroke:#263238;stroke-linecap:round;stroke-linejoin:round;stroke-width:1.00861px"></path><path d="M669.19,401.23s4-4.93,6.53-6.78a35,35,0,0,0,4.24-3.68" style="fill:none;stroke:#263238;stroke-linecap:round;stroke-linejoin:round;stroke-width:1.00861px"></path><path d="M669.47,395.1a60.81,60.81,0,0,0-5.46-7.48,53.86,53.86,0,0,0-6.42-5.95" style="fill:none;stroke:#263238;stroke-linecap:round;stroke-linejoin:round;stroke-width:1.00861px"></path><path d="M667.71,414.34a15.41,15.41,0,0,0-2.71-7.63c-2.49-3.29-5.43-7.66-6.63-9.38" style="fill:none;stroke:#263238;stroke-linecap:round;stroke-linejoin:round;stroke-width:1.00861px"></path><path d="M691.75,472.56H660.37a2.47,2.47,0,0,1-2.47-2.47l-7.78-48.34H702l-7.78,48.34A2.47,2.47,0,0,1,691.75,472.56Z" style="fill:#263238;stroke:#263238;stroke-linecap:round;stroke-linejoin:round;stroke-width:1.00861px"></path><path d="M701.55,428.52H650.12a4.06,4.06,0,0,1-4.06-4.06h0a4.06,4.06,0,0,1,4.06-4.06h51.43a4.06,4.06,0,0,1,4.06,4.06h0A4.06,4.06,0,0,1,701.55,428.52Z" style="fill:#263238;stroke:#263238;stroke-linecap:round;stroke-linejoin:round;stroke-width:1.00861px"></path><line x1="652.16" y1="428.7" x2="689.5" y2="428.7" style="fill:none;stroke:#fff;stroke-linecap:round;stroke-linejoin:round;stroke-width:1.00861px"></line><line x1="693.02" y1="428.7" x2="699.17" y2="428.7" style="fill:none;stroke:#fff;stroke-linecap:round;stroke-linejoin:round;stroke-width:1.00861px"></line></g><g id="freepik--Clock--inject-44"><path d="M128.57,78a34.72,34.72,0,1,0,34.71,34.72A34.71,34.71,0,0,0,128.57,78Zm0,62.57a27.85,27.85,0,1,1,27.85-27.85A27.85,27.85,0,0,1,128.57,140.59Z" style="fill:#263238"></path><path d="M132,112.74a3.44,3.44,0,1,1-3.43-3.44A3.44,3.44,0,0,1,132,112.74Z" style="fill:#263238"></path><line x1="129.89" y1="113.35" x2="142.09" y2="116.49" style="fill:none;stroke:#263238;stroke-miterlimit:10;stroke-width:1.0862px"></line><line x1="128.57" y1="112.74" x2="114.2" y2="91.74" style="fill:none;stroke:#263238;stroke-miterlimit:10;stroke-width:1.0862px"></line></g></svg>